<svg width="20" height="21" viewBox="0 0 20 21" fill="none" xmlns="http://www.w3.org/2000/svg">
<path d="M9.97001 0.897966C4.45001 0.917966 -0.0199942 5.40797 5.81803e-06 10.928C0.0200058 16.448 4.51001 20.918 10.03 20.898C15.55 20.878 20.02 16.388 20 10.868C19.98 5.34797 15.49 0.887966 9.97001 0.897966ZM12.26 10.998C13.04 11.268 14.09 11.848 14.09 13.638C14.09 15.178 12.88 16.418 11.4 16.418H10.75V16.998C10.75 17.408 10.41 17.748 10 17.748C9.59001 17.748 9.25001 17.408 9.25001 16.998V16.418H8.89001C7.25001 16.418 5.92001 15.038 5.92001 13.338C5.92001 12.928 6.26001 12.588 6.67001 12.588C7.08001 12.588 7.42001 12.928 7.42001 13.338C7.42001 14.208 8.08001 14.918 8.89001 14.918H9.25001V11.538L7.74001 10.998C6.96001 10.728 5.91001 10.148 5.91001 8.35797C5.91001 6.81797 7.12001 5.57797 8.60001 5.57797H9.25001V4.99797C9.25001 4.58797 9.59001 4.24797 10 4.24797C10.41 4.24797 10.75 4.58797 10.75 4.99797V5.57797H11.11C12.75 5.57797 14.08 6.95797 14.08 8.65797C14.08 9.06797 13.74 9.40797 13.33 9.40797C12.92 9.40797 12.58 9.06797 12.58 8.65797C12.58 7.78797 11.92 7.07797 11.11 7.07797H10.75V10.458L12.26 10.998Z" fill="#020E33"/>
</svg>
